<?xml version="1.0" standalone="no"?>
<!DOCTYPE svg PUBLIC "-//W3C//DTD SVG 20010904//EN"
 "http://www.w3.org/TR/2001/REC-SVG-20010904/DTD/svg10.dtd">
<svg version="1.0" xmlns="http://www.w3.org/2000/svg"
 width="120.000000pt" height="120.000000pt" viewBox="0 0 120.000000 120.000000"
 preserveAspectRatio="xMidYMid meet">
<metadata>
Created by potrace 1.11, written by Peter Selinger 2001-2013
</metadata>
<g transform="translate(0.000000,120.000000) scale(0.100000,-0.100000)"
fill="#000000" stroke="none">
<path d="M450 1180 c0 -16 -7 -20 -30 -20 -23 0 -30 -4 -30 -20 0 -17 -7 -20
-48 -20 l-48 0 1 -80 c0 -66 -2 -80 -15 -80 -22 0 -22 -146 0 -160 21 -13 21
-80 0 -80 -23 0 -22 -150 1 -159 9 -3 15 -14 13 -23 -1 -12 4 -18 17 -18 12 0
19 -7 19 -20 0 -16 7 -20 30 -20 l30 0 0 -79 c0 -68 -3 -79 -18 -83 -15 -4
-18 -13 -16 -42 3 -35 2 -36 -31 -36 -28 0 -33 -3 -30 -20 4 -21 -13 -25 -92
-20 -27 1 -33 -2 -33 -19 0 -12 -6 -21 -15 -21 -11 0 -15 -11 -15 -40 0 -32
-4 -40 -18 -40 -13 0 -17 -7 -16 -27 1 -16 3 -34 3 -40 1 -10 108 -13 501 -13
493 0 500 0 500 20 0 16 -7 20 -30 20 -28 0 -30 2 -30 40 0 33 -3 40 -19 40
-14 0 -18 5 -14 20 4 15 0 20 -15 20 -13 0 -19 6 -18 17 1 14 -8 19 -43 21
-33 3 -44 8 -48 23 -4 13 -14 19 -34 19 -27 0 -29 3 -29 40 0 29 4 40 15 40
11 0 15 11 15 40 0 29 4 40 15 40 17 0 17 -2 16 113 l-1 87 33 0 c33 0 34 1
32 40 -2 32 2 40 15 40 14 0 17 8 16 40 -1 30 -5 40 -17 40 -10 0 -16 7 -15
18 1 12 -8 18 -31 20 l-33 3 0 78 c0 70 2 79 20 84 23 6 17 37 -7 37 -8 0 -13
8 -12 18 4 40 -2 62 -16 62 -8 0 -15 9 -15 20 0 11 -7 20 -15 20 -8 0 -15 9
-15 20 0 11 -7 20 -15 20 -14 0 -19 12 -16 33 0 4 -78 7 -174 7 -168 0 -175
-1 -175 -20z"/>
</g>
</svg>
